# xmcd CD database file
#
# Track frame offsets:
#	150
#	14355
#	34014
#	55052
#	70554
#	87205
#	98701
#	113705
#
# Disc length: 1804 seconds
#
# Revision: 2
# Processed by: cddbd v1.4b41PL1 Copyright (c) Steve Scherf et al.
# Submitted via: Feurio! 1.60 - http://www.feurio.com
#
DISCID=56070a08,66070a08
DTITLE=DJ MARCOS - FUNK TOTAL
DYEAR=1900
DGENRE=
TTITLE0=PLANETA DOMINADO - PLANETA DOMINADO
TTITLE1=ENTRA E SAI - ENTRA E SAI
TTITLE2=CEROL NA MÃO - CEROL NA MÃO
TTITLE3=O BAILE TODO - O BAILE TODO
TTITLE4=LANCE OS BRAÇOS - LANCE OS BRAÇOS
TTITLE5=PEGA NA BUNDINHA - PEGA NA BUNDINHA
TTITLE6=PUSH PUSH - PUSH PUSH
TTITLE7=DON'T STOP - DON'T STOP
EXTD=
EXTT0=
EXTT1=
EXTT2=
EXTT3=
EXTT4=
EXTT5=
EXTT6=
EXTT7=
PLAYORDER=
